<svg xmlns="http://www.w3.org/2000/svg" x="0px" y="0px" viewBox="6.281990051269531 6.084290027618408 35.43601989746094 35.8314208984375" enable-background="new 0 0 48 48">
<g>
	
		<line fill="none" stroke="#FFB02CFF" stroke-width="1.5" stroke-linecap="round" stroke-linejoin="round" stroke-miterlimit="10" x1="37.92256" y1="17.51799" x2="37.92256" y2="9.2926"/>
	<path fill="none" stroke="#FFB02CFF" stroke-width="1.5" stroke-linecap="round" stroke-linejoin="round" stroke-miterlimit="10" d="   M34.70471,24.23433h0.98404c1.64,0,2.96948,1.32948,2.96948,2.96948v7.76872"/>
	<path fill="none" stroke="#FFB02CFF" stroke-width="1.5" stroke-linecap="round" stroke-linejoin="round" stroke-miterlimit="10" d="   M13.29529,24.23433h-0.98404c-1.64,0-2.96949,1.32948-2.96949,2.96948v7.76872"/>
</g>
<g>
	<path fill="none" stroke="#218240FF" stroke-width="1.5" stroke-linecap="round" stroke-linejoin="round" stroke-miterlimit="10" d="   M36.34845,37.28232c0-1.27566,1.03413-2.30978,2.30978-2.30978c1.27566,0,2.30978,1.03413,2.30978,2.30978"/>
	<path fill="none" stroke="#218240FF" stroke-width="1.5" stroke-linecap="round" stroke-linejoin="round" stroke-miterlimit="10" d="   M11.65155,37.28232c0-1.27566-1.03412-2.30978-2.30978-2.30978s-2.30978,1.03413-2.30978,2.30978"/>
</g>
<g>
	
		<path fill="#FFFFFF" stroke="#218240FF" stroke-width="1.5" stroke-linecap="round" stroke-linejoin="round" stroke-miterlimit="10" d="   M22.32273,8.06345h3.35454c4.98572,0,9.02744,4.04172,9.02744,9.02744v14.12694c0,2.07367-1.68104,3.75471-3.75471,3.75471h-13.9   c-2.07367,0-3.75471-1.68104-3.75471-3.75471V17.09089C13.29529,12.10517,17.33701,8.06345,22.32273,8.06345z"/>
	
		<line fill="none" stroke="#218240FF" stroke-width="1.5" stroke-linecap="round" stroke-linejoin="round" stroke-miterlimit="10" x1="16.78199" y1="24.80208" x2="16.78199" y2="24.80208"/>
	
		<path fill="#FFFFFF" stroke="#218240FF" stroke-width="1.5" stroke-linecap="round" stroke-linejoin="round" stroke-miterlimit="10" d="   M35.7862,19.97254h-1.08149v-4.27273h1.08149c1.17988,0,2.13636,0.95648,2.13636,2.13636v0   C37.92256,19.01605,36.96608,19.97254,35.7862,19.97254z"/>
	
		<path fill="#FFFFFF" stroke="#218240FF" stroke-width="1.5" stroke-linecap="round" stroke-linejoin="round" stroke-miterlimit="10" d="   M12.2138,19.97254h1.08149v-4.27273H12.2138c-1.17988,0-2.13636,0.95648-2.13636,2.13636v0   C10.07744,19.01605,11.03392,19.97254,12.2138,19.97254z"/>
	
		<circle fill="#FFFFFF" stroke="#218240FF" stroke-width="1.5" stroke-linecap="round" stroke-linejoin="round" stroke-miterlimit="10" cx="37.92256" cy="8.06345" r="1.22916"/>
	
		<line fill="none" stroke="#218240FF" stroke-width="1.5" stroke-linecap="round" stroke-linejoin="round" stroke-miterlimit="10" x1="16.79756" y1="27.25663" x2="16.79756" y2="27.29451"/>
	<path fill="none" stroke="#218240FF" stroke-width="1.5" stroke-linecap="round" stroke-linejoin="round" stroke-miterlimit="10" d="   M28.37271,22.11485h-8.74541c-2.0986,0-3.79985-1.70125-3.79985-3.79985v-0.5031c0-2.0986,1.70125-3.79985,3.79985-3.79985h8.74541   c2.0986,0,3.79985,1.70125,3.79985,3.79985v0.5031C32.17256,20.4136,30.47131,22.11485,28.37271,22.11485z"/>
	
		<line fill="none" stroke="#218240FF" stroke-width="1.5" stroke-linecap="round" stroke-linejoin="round" stroke-miterlimit="10" x1="20.33647" y1="18.06344" x2="20.33647" y2="18.06344"/>
	
		<line fill="none" stroke="#218240FF" stroke-width="1.5" stroke-linecap="round" stroke-linejoin="round" stroke-miterlimit="10" x1="27.54516" y1="18.06344" x2="27.54516" y2="18.06344"/>
</g>
<g>
	
		<path fill="#FFFFFF" stroke="#FFB02CFF" stroke-width="1.5" stroke-linecap="round" stroke-linejoin="round" stroke-miterlimit="10" d="   M30.67161,37.08941l0.2306-0.49446c0.34837-0.74699,0.02523-1.63496-0.72176-1.98333l-1.08837-0.50758   c0.012-0.14315,0.04302-0.28077,0.04302-0.427c0-0.37809-0.04669-0.74433-0.12426-1.09915l0.99482-0.63373   c0.69516-0.44284,0.8997-1.36539,0.45685-2.06054l-0.29315-0.46017c-0.44284-0.69514-1.36536-0.89968-2.06051-0.45685   l-1.00785,0.64203c-0.40409-0.30856-0.85013-0.55708-1.33581-0.73571v-1.19208c0-0.82423-0.66817-1.4924-1.4924-1.4924h-0.54557   c-0.82423,0-1.4924,0.66817-1.4924,1.4924v1.19208c-0.70173,0.25814-1.33861,0.64909-1.8582,1.16666l-1.06496-0.49663   c-0.74699-0.34835-1.63494-0.02519-1.9833,0.72179l-0.2306,0.49447c-0.34836,0.74699-0.02521,1.63494,0.72177,1.9833   l1.0884,0.50759c-0.012,0.14315-0.04302,0.2807-0.04302,0.42693c0,0.37816,0.04676,0.74433,0.12433,1.09922L17.99439,35.41   c-0.69518,0.44284-0.89973,1.36539-0.45687,2.06055l0.29312,0.46012c0.44285,0.69516,1.36539,0.89968,2.06054,0.45683   l1.00784-0.64205c0.40409,0.30856,0.85013,0.55708,1.33581,0.73571v1.19215c0,0.82423,0.66817,1.4924,1.4924,1.4924h0.54557   c0.82423,0,1.4924-0.66817,1.4924-1.4924v-1.19215c0.70173-0.25814,1.33854-0.64916,1.85813-1.16666l1.06497,0.49667   C29.43527,38.15954,30.32323,37.8364,30.67161,37.08941z"/>
	
		<circle fill="none" stroke="#FFB02CFF" stroke-width="1.5" stroke-linecap="round" stroke-linejoin="round" stroke-miterlimit="10" cx="24" cy="33.67708" r="2.11363"/>
</g>
</svg>