<svg xmlns="http://www.w3.org/2000/svg" x="0px" y="0px" viewBox="5.98360013961792 7.62537956237793 36.032806396484375 32.74923896789551" enable-background="new 0 0 48 48">
<g>
	
		<path fill="#FFFFFF" stroke="#218240FF" stroke-width="1.5" stroke-linecap="round" stroke-linejoin="round" stroke-miterlimit="10" d="   M35.44926,39.62462H8.93718c-1.07332,0-1.94342-0.8701-1.94342-1.94342V18.3095c0-1.07332,0.8701-1.94342,1.94342-1.94342h26.51209   c1.07332,0,1.94342,0.8701,1.94342,1.94342v19.3717C37.39268,38.75452,36.52258,39.62462,35.44926,39.62462z"/>
	<path fill="none" stroke="#218240FF" stroke-width="1.5" stroke-linecap="round" stroke-linejoin="round" stroke-miterlimit="10" d="   M30.41773,33.93526h-6.08078c-1.12703,0-2.04067-0.91364-2.04067-2.04067v-3.71031c0-1.12703,0.91364-2.04067,2.04067-2.04067   h6.08078c1.12703,0,2.04067,0.91364,2.04067,2.04067v3.71031C32.4584,33.02163,31.54476,33.93526,30.41773,33.93526z"/>
	<path fill="none" stroke="#218240FF" stroke-width="1.5" stroke-linecap="round" stroke-linejoin="round" stroke-miterlimit="10" d="   M17.51936,25.17084h-4.48348c-0.91922,0-1.66439,0.74517-1.66439,1.66439v12.78939h7.81225V26.83522   C19.18375,25.91601,18.43858,25.17084,17.51936,25.17084z"/>
	
		<line fill="none" stroke="#218240FF" stroke-width="1.5" stroke-linecap="round" stroke-linejoin="round" stroke-miterlimit="10" x1="16.32366" y1="32.37755" x2="16.32366" y2="32.37764"/>
</g>
<g>
	
		<path fill="#FFFFFF" stroke="#FFB02CFF" stroke-width="1.5" stroke-linecap="round" stroke-linejoin="round" stroke-miterlimit="10" d="   M31.63391,13.52859h-6.22508h-6.22508h-6.22508H7.13842c-0.22358,0-0.40482,0.18125-0.40482,0.40482v3.83799   c0,1.83081,1.48416,3.31497,3.31497,3.31497h0c1.09967,0,2.05687-0.60995,2.55175-1.50998   c0.16047-0.29185,0.55622-0.29185,0.7167-0.00001c0.4949,0.90004,1.45212,1.50999,2.5518,1.50999h0.40477   c1.09968,0,2.0569-0.60996,2.55181-1.51c0.16047-0.29185,0.55622-0.29185,0.7167,0c0.4949,0.90004,1.45213,1.51,2.55181,1.51   h0.40477c1.09967,0,2.0569-0.60995,2.5518-1.50999c0.16048-0.29185,0.55623-0.29185,0.7167,0.00001   c0.49489,0.90003,1.45208,1.50998,2.55175,1.50998h0.40482c1.09967,0,2.05689-0.60995,2.5518-1.50999   c0.16048-0.29185,0.55623-0.29185,0.7167,0.00001c0.49489,0.90003,1.45208,1.50998,2.55176,1.50998l0,0   c1.83078,0,3.31492-1.48414,3.31492-3.31492v-3.83805c0-0.22358-0.18125-0.40482-0.40482-0.40482H31.63391z"/>
	
		<path fill="#FFFFFF" stroke="#FFB02CFF" stroke-width="1.5" stroke-linecap="round" stroke-linejoin="round" stroke-miterlimit="10" d="   M31.97869,8.37538H12.61388c-1.33962,0-2.59837,0.64096-3.38634,1.72433l-2.1557,2.96385   c-0.14076,0.19353-0.00251,0.46502,0.23679,0.46502h29.97531c0.2393,0,0.37755-0.27149,0.23679-0.46502l-2.1557-2.96385   C34.57706,9.01634,33.31831,8.37538,31.97869,8.37538z"/>
	<g>
		
			<line fill="none" stroke="#FFB02CFF" stroke-width="1.5" stroke-linecap="round" stroke-linejoin="round" stroke-miterlimit="10" x1="12.85562" y1="16.36608" x2="12.85562" y2="18.66958"/>
		
			<line fill="none" stroke="#FFB02CFF" stroke-width="1.5" stroke-linecap="round" stroke-linejoin="round" stroke-miterlimit="10" x1="19.2662" y1="16.36608" x2="19.2662" y2="18.66958"/>
		
			<line fill="none" stroke="#FFB02CFF" stroke-width="1.5" stroke-linecap="round" stroke-linejoin="round" stroke-miterlimit="10" x1="25.41912" y1="16.36608" x2="25.41912" y2="18.66958"/>
		
			<line fill="none" stroke="#FFB02CFF" stroke-width="1.5" stroke-linecap="round" stroke-linejoin="round" stroke-miterlimit="10" x1="31.6545" y1="16.36608" x2="31.6545" y2="18.66958"/>
	</g>
	<g>
		
			<circle fill="#FFFFFF" stroke="#FFB02CFF" stroke-width="1.5" stroke-linecap="round" stroke-linejoin="round" stroke-miterlimit="10" cx="34.87079" cy="33.229" r="6.39562"/>
		<g>
			<path fill="none" stroke="#FFB02CFF" stroke-width="1.5" stroke-linecap="round" stroke-linejoin="round" stroke-miterlimit="10" d="     M33.70765,35.55199c0.27696,0.31393,0.69519,0.5139,1.16314,0.5139c0.83392,0,1.50994-0.63506,1.50994-1.41844     c0-0.78339-0.67603-1.41844-1.50994-1.41844s-1.50994-0.63506-1.50994-1.41844c0-0.78338,0.67603-1.41844,1.50994-1.41844     c0.38673,0,0.7395,0.13658,1.00663,0.36118"/>
			
				<line fill="none" stroke="#FFB02CFF" stroke-width="1.5" stroke-linecap="round" stroke-linejoin="round" stroke-miterlimit="10" x1="34.87079" y1="36.66847" x2="34.87079" y2="36.06588"/>
			
				<line fill="none" stroke="#FFB02CFF" stroke-width="1.5" stroke-linecap="round" stroke-linejoin="round" stroke-miterlimit="10" x1="34.87079" y1="30.39212" x2="34.87079" y2="29.78954"/>
		</g>
	</g>
</g>
<g>
	
		<path fill="#FFFFFF" stroke="#218240FF" stroke-width="1.5" stroke-linecap="round" stroke-linejoin="round" stroke-miterlimit="10" d="   M28.4814,16.7349H15.90504c-0.88891,0-1.60951-0.7206-1.60951-1.60951v-2.27863c0-0.88891,0.7206-1.60951,1.60951-1.60951H28.4814   c0.88891,0,1.60951,0.7206,1.60951,1.60951v2.27863C30.09091,16.0143,29.37031,16.7349,28.4814,16.7349z"/>
</g>
</svg>