<svg xmlns="http://www.w3.org/2000/svg" x="0px" y="0px" viewBox="13.649999618530273 14 36.70000457763672 36" enable-background="new 0 0 64 64">
<g>
	<g>
	</g>
	
		<path fill="#FFFFFF" stroke="#FFB02CFF" stroke-width="1" stroke-linecap="round" stroke-linejoin="round" stroke-miterlimit="10" d="   M36.541,49.5h-9.083c-4.257,0-7.709-3.451-7.709-7.709V22.209c0-4.257,3.451-7.709,7.709-7.709h9.083   c4.257,0,7.709,3.451,7.709,7.709v19.583C44.25,46.049,40.799,49.5,36.541,49.5z"/>
	
		<path fill="#FFFFFF" stroke="#FFB02CFF" stroke-width="1" stroke-linecap="round" stroke-linejoin="round" stroke-miterlimit="10" d="   M46.7,25.708h-6.3c-1.74,0-3.15,1.41-3.15,3.15v6.3c0,1.74,1.41,3.15,3.15,3.15h0.167v0.995c0,1.125,1.361,1.689,2.156,0.893   l1.875-1.875c0.004-0.004,0.005-0.009,0.009-0.013H46.7c1.74,0,3.15-1.41,3.15-3.15v-6.3C49.85,27.118,48.44,25.708,46.7,25.708z"/>
	
		<path fill="#FFFFFF" stroke="#FFB02CFF" stroke-width="1" stroke-linecap="round" stroke-linejoin="round" stroke-miterlimit="10" d="   M17.3,25.708h6.3c1.74,0,3.15,1.41,3.15,3.15v6.3c0,1.74-1.41,3.15-3.15,3.15h-0.167v0.995c0,1.125-1.361,1.689-2.156,0.893   l-1.875-1.875c-0.004-0.004-0.005-0.009-0.009-0.013H17.3c-1.74,0-3.15-1.41-3.15-3.15v-6.3C14.15,27.118,15.56,25.708,17.3,25.708   z"/>
</g>
<g>
	<path fill="none" stroke="#218240FF" stroke-width="1" stroke-linecap="round" stroke-linejoin="round" stroke-miterlimit="10" d="   M22.84,29.347c-0.932-0.348-1.818,0.079-2.197,0.812c-0.082,0.158-0.304,0.158-0.386,0c-0.379-0.733-1.265-1.159-2.197-0.812   c-0.663,0.248-1.071,0.908-1.069,1.616c0.003,1.657,1.067,3.126,2.641,3.646l0.298,0.097c0.341,0.112,0.709,0.111,1.049-0.002   l0.29-0.096c1.574-0.52,2.637-1.99,2.641-3.646C23.91,30.255,23.503,29.595,22.84,29.347z"/>
	<path fill="none" stroke="#218240FF" stroke-width="1" stroke-linecap="round" stroke-linejoin="round" stroke-miterlimit="10" d="   M41.377,33.667v-3.904c0-0.63,0.689-1.017,1.227-0.69l3.105,1.887c0.508,0.309,0.519,1.043,0.02,1.367l-3.105,2.017   C42.087,34.693,41.377,34.307,41.377,33.667z"/>
	
		<line fill="none" stroke="#218240FF" stroke-width="1" stroke-linecap="round" stroke-linejoin="round" stroke-miterlimit="10" x1="30.25" y1="46" x2="33.75" y2="46"/>
	<path fill="none" stroke="#218240FF" stroke-width="1" stroke-linecap="round" stroke-linejoin="round" stroke-miterlimit="10" d="   M34.184,19.75h-4.369c-1.216,0-2.202-0.986-2.202-2.202V14.5h8.773v3.048C36.386,18.764,35.4,19.75,34.184,19.75z"/>
</g>
</svg>