<svg xmlns="http://www.w3.org/2000/svg" x="0px" y="0px" viewBox="15.499000549316406 18.40999984741211 33 27.180999755859375" enable-background="new 0 0 64 64">
<g>
	
		<path fill="#FFFFFF" stroke="#FFB02CFF" stroke-width="1.5" stroke-linecap="round" stroke-linejoin="round" stroke-miterlimit="10" d="   M24.127,19.477c0,0,2.067-0.317,8.03-0.317c5.773,0,7.715,0.317,7.715,0.317c4.436,0.307,7.877,3.995,7.877,8.442v8.207   c0,4.447-3.441,8.135-7.877,8.442c0,0-3.01,0.273-7.873,0.273c-5.536,0-7.873-0.273-7.873-0.273   c-4.436-0.307-7.877-3.995-7.877-8.442v-8.207C16.25,23.472,19.691,19.784,24.127,19.477z"/>
</g>
<g>
	<path fill="none" stroke="#218240FF" stroke-width="1.5" stroke-linecap="round" stroke-linejoin="round" stroke-miterlimit="10" d="   M27.755,36.21v-8.465c0-1.366,1.494-2.206,2.66-1.496l6.733,4.092c1.103,0.67,1.126,2.262,0.044,2.965l-6.733,4.373   C29.295,38.435,27.755,37.599,27.755,36.21z"/>
</g>
</svg>